<svg width="24" height="23" viewBox="0 0 24 23" fill="none" xmlns="http://www.w3.org/2000/svg">
<path id="Vector" d="M17.2645 3.50568L19.2439 1.61515C19.6565 1.22128 20.2162 1 20.7997 1C21.3833 1 21.9429 1.22128 22.3556 1.61515C22.7682 2.00902 23 2.54323 23 3.10025C23 3.65727 22.7682 4.19148 22.3556 4.58535L9.8961 16.4785C9.27579 17.0702 8.51084 17.5052 7.67031 17.7441L4.51995 18.64L5.45861 15.6329C5.70885 14.8306 6.16452 14.1004 6.78446 13.5083L17.2645 3.50568ZM17.2645 3.50568L20.3597 6.4602M18.5998 14.1601V19.48C18.5998 20.1484 18.3216 20.7893 17.8265 21.2619C17.3314 21.7345 16.66 22 15.9598 22H3.63997C2.9398 22 2.26832 21.7345 1.77323 21.2619C1.27814 20.7893 1 20.1484 1 19.48V7.72019C1 7.05185 1.27814 6.41089 1.77323 5.9383C2.26832 5.46572 2.9398 5.20022 3.63997 5.20022H9.21322" stroke="white" stroke-width="1.5" stroke-linecap="round" stroke-linejoin="round"/>
</svg>
