<svg width="27" height="27" viewBox="0 0 27 27" fill="none" xmlns="http://www.w3.org/2000/svg">
<path id="Vector" d="M13.5 0C20.955 0 27 5.37 27 12C27 16.1401 23.64 19.4999 19.4999 19.4999H16.845C15.6001 19.4999 14.595 20.505 14.595 21.75C14.595 22.32 14.82 22.845 15.165 23.235C15.525 23.64 15.75 24.165 15.75 24.75C15.75 25.9951 14.715 27 13.5 27C6.045 27 0 20.955 0 13.5C0 6.045 6.045 0 13.5 0ZM7.425 13.5C8.54338 13.5 9.45 12.5933 9.45 11.475C9.45 10.3566 8.54338 9.45 7.425 9.45C6.30662 9.45 5.4 10.3566 5.4 11.475C5.4 12.5933 6.30662 13.5 7.425 13.5ZM19.575 13.5C20.6933 13.5 21.6 12.5933 21.6 11.475C21.6 10.3566 20.6933 9.45 19.575 9.45C18.4567 9.45 17.55 10.3566 17.55 11.475C17.55 12.5933 18.4567 13.5 19.575 13.5ZM13.5 9.45C14.6183 9.45 15.525 8.54338 15.525 7.425C15.525 6.30662 14.6183 5.4 13.5 5.4C12.3817 5.4 11.475 6.30662 11.475 7.425C11.475 8.54338 12.3817 9.45 13.5 9.45Z" fill="#FFFCFC"/>
</svg>
