<svg width="37" height="37" viewBox="0 0 37 37" fill="none" xmlns="http://www.w3.org/2000/svg">
<g id="Frame">
<path id="Vector" d="M18.5 33.9114C9.98562 33.9114 3.08334 27.0091 3.08334 18.4948C3.08334 9.98034 9.98562 3.07806 18.5 3.07806C27.0143 3.07806 33.9167 9.98034 33.9167 18.4948C33.9167 27.0091 27.0143 33.9114 18.5 33.9114ZM18.5 30.8281C25.3116 30.8281 30.8333 25.3063 30.8333 18.4948C30.8333 11.6832 25.3116 6.1614 18.5 6.1614C11.6885 6.1614 6.16668 11.6832 6.16668 18.4948C6.16668 25.3063 11.6885 30.8281 18.5 30.8281ZM10.7922 23.6119C13.9983 23.3786 17.1387 22.0363 19.5901 19.5849C22.0415 17.1335 23.3839 13.993 23.6173 10.787C24.12 11.1215 24.5973 11.5105 25.0407 11.954C28.6531 15.5664 28.6531 21.4232 25.0407 25.0354C21.4284 28.6479 15.5716 28.6479 11.9593 25.0354C11.5158 24.5921 11.1268 24.1148 10.7922 23.6119Z" fill="white"/>
</g>
</svg>
