<svg width="24" height="23" viewBox="0 0 24 23" fill="none" xmlns="http://www.w3.org/2000/svg">
<path id="Vector" d="M15.6533 8.2696L15.192 17.9616M8.808 17.9616L8.34667 8.2696M21.6373 4.81277C22.0933 4.86877 22.5467 4.92799 23 4.99153M21.6373 4.81277L20.2133 19.7633C20.1552 20.372 19.8148 20.9405 19.26 21.3552C18.7053 21.7699 17.9772 22.0002 17.2213 22H6.77867C6.02279 22.0002 5.2947 21.7699 4.73997 21.3552C4.18525 20.9405 3.84479 20.372 3.78667 19.7633L2.36267 4.81277M21.6373 4.81277C20.0985 4.62487 18.5517 4.48226 17 4.38524M2.36267 4.81277C1.90667 4.86769 1.45333 4.92692 1 4.99045M2.36267 4.81277C3.90151 4.62487 5.44831 4.48227 7 4.38524M17 4.38524V3.39881C17 2.12807 15.7867 1.06841 14.2133 1.02856C12.7382 0.99048 11.2618 0.99048 9.78667 1.02856C8.21333 1.06841 7 2.12915 7 3.39881V4.38524M17 4.38524C13.6716 4.17748 10.3284 4.17748 7 4.38524" stroke="white" stroke-width="1.5" stroke-linecap="round" stroke-linejoin="round"/>
</svg>
